<?xml version="1.0" standalone="no"?>
<!DOCTYPE svg PUBLIC "-//W3C//DTD SVG 20010904//EN"
 "http://www.w3.org/TR/2001/REC-SVG-20010904/DTD/svg10.dtd">
<svg version="1.0" xmlns="http://www.w3.org/2000/svg"
 width="1080.000000pt" height="1080.000000pt" viewBox="0 0 1080.000000 1080.000000"
 preserveAspectRatio="xMidYMid meet">

<g transform="translate(0.000000,1080.000000) scale(0.100000,-0.100000)"
fill="#000000" stroke="none">
<path d="M6020 10386 c0 -4 -181 -632 -195 -677 -7 -20 11 -22 419 -69 142
-16 261 -31 263 -34 2 -2 0 -19 -6 -38 -34 -117 -191 -664 -191 -669 0 -4 17
-9 38 -13 35 -5 644 -76 657 -76 9 0 -6 -72 -21 -100 -8 -14 -53 -162 -100
-330 -47 -168 -88 -308 -92 -311 -4 -4 -151 13 -327 37 -176 24 -331 43 -345
44 -24 0 -27 -6 -54 -107 -16 -60 -30 -133 -32 -163 -6 -88 -24 -212 -37 -250
-6 -19 -12 -37 -12 -40 -7 -40 -29 -111 -36 -116 -15 -9 -10 -42 7 -52 12 -7
13 -14 5 -33 -6 -13 -47 -152 -92 -309 -76 -268 -83 -287 -117 -322 -20 -21
-43 -38 -49 -38 -23 0 -14 -18 11 -24 14 -3 168 -28 342 -56 174 -27 319 -52
322 -55 3 -3 -2 -31 -11 -62 -9 -32 -54 -195 -101 -363 -48 -167 -86 -310 -86
-317 0 -8 13 -13 33 -14 17 0 41 -5 52 -10 13 -6 1 -7 -36 -3 l-57 6 -15 -53
c-9 -30 -28 -99 -42 -153 -26 -97 -69 -248 -125 -436 -29 -94 -220 -759 -241
-834 -10 -36 -12 -38 -42 -33 -88 15 -1102 201 -1237 227 -403 77 -751 140
-772 140 -13 0 -29 4 -36 9 -13 8 -15 0 307 1106 207 712 301 1045 303 1077
l3 32 -119 18 c-66 10 -122 21 -125 23 -2 3 29 118 69 255 66 224 76 250 94
249 38 -1 245 -35 251 -41 4 -3 -26 -115 -65 -248 -39 -133 -69 -245 -66 -247
8 -9 656 -106 662 -100 3 3 41 130 84 284 43 153 126 442 185 643 103 352 145
503 141 507 -3 4 -590 83 -616 83 -55 0 -55 -2 54 371 l104 354 43 -2 c24 -1
176 -18 336 -37 161 -20 295 -36 297 -36 8 0 199 690 192 697 -4 4 -153 24
-332 45 -178 21 -471 55 -651 77 -181 21 -331 35 -335 32 -3 -3 -52 -159 -107
-345 -56 -187 -103 -341 -105 -344 -3 -2 -150 15 -327 37 -178 22 -324 39
-324 38 -1 -1 -48 -155 -104 -342 -56 -187 -105 -343 -109 -347 -5 -5 -414 46
-608 76 l-31 4 -103 -338 c-56 -186 -106 -343 -109 -348 -4 -7 -111 4 -316 34
-170 24 -312 41 -315 37 -4 -5 -55 -168 -115 -363 -59 -195 -154 -504 -210
-687 l-102 -332 26 -6 c75 -15 594 -95 598 -91 6 5 188 610 198 654 4 18 12
35 18 38 15 5 635 -91 643 -99 6 -5 -22 -108 -56 -207 -5 -14 -18 -59 -30
-100 -12 -41 -25 -86 -30 -100 -5 -14 -18 -59 -30 -100 -12 -41 -39 -131 -60
-200 -21 -69 -114 -372 -205 -675 -224 -739 -235 -775 -243 -775 -4 0 -128 23
-276 50 -148 28 -275 49 -282 46 -7 -3 -29 0 -49 5 -27 8 -35 14 -31 27 35
119 161 548 179 615 l25 87 -22 5 c-49 12 -485 85 -531 90 -27 3 -54 10 -61
17 -9 10 13 91 93 348 57 184 102 342 101 350 -2 11 -73 26 -288 62 -157 26
-291 47 -299 45 -17 -2 -235 -687 -223 -699 4 -4 87 -57 184 -117 173 -108
180 -111 270 -126 51 -9 96 -19 100 -23 4 -4 -31 -131 -79 -282 -258 -827
-303 -975 -300 -984 3 -6 86 -57 186 -113 173 -97 187 -103 292 -124 68 -14
108 -26 106 -33 -12 -32 -177 -577 -177 -585 0 -9 372 -211 390 -211 35 0 210
-45 210 -54 0 -6 -41 -147 -91 -314 -50 -167 -90 -305 -88 -306 2 -2 90 -46
194 -98 166 -83 204 -97 304 -119 62 -13 115 -29 118 -35 2 -6 -39 -154 -91
-330 -53 -175 -92 -322 -88 -325 4 -4 90 -45 192 -92 l185 -85 473 -108 c259
-60 472 -113 472 -119 0 -5 -43 -160 -96 -343 -53 -183 -94 -338 -91 -345 3
-7 81 -45 175 -85 157 -68 195 -80 513 -157 189 -46 345 -82 347 -81 1 2 43
147 93 322 49 175 99 349 109 385 l20 66 227 -53 c895 -210 1184 -276 1188
-272 2 2 52 177 110 388 59 212 108 386 109 388 2 1 165 -33 362 -77 198 -44
362 -77 365 -73 3 4 53 180 109 392 57 212 104 386 104 387 1 0 165 -34 366
-76 201 -43 369 -75 373 -71 4 4 53 178 109 386 55 208 104 382 107 386 4 5
164 -23 355 -62 191 -38 359 -71 374 -72 22 -3 27 2 37 42 7 25 99 376 205
780 105 404 193 737 195 741 2 3 174 -25 382 -62 208 -38 381 -65 384 -61 7 9
199 754 199 773 0 8 -53 67 -117 131 l-118 116 -230 38 c-126 20 -233 40 -237
43 -4 3 72 306 168 673 l175 667 -122 135 c-67 74 -131 137 -143 139 -12 3
-110 18 -218 33 -160 22 -198 30 -198 43 0 8 30 127 66 263 l66 248 -123 137
c-68 76 -124 140 -125 142 -2 2 -97 16 -211 32 -114 16 -208 29 -209 29 0 0
28 105 62 233 35 127 64 240 64 250 0 10 -57 83 -126 162 -117 134 -128 144
-167 150 -23 3 -108 14 -190 24 -81 10 -149 20 -152 23 -3 3 22 103 55 223 33
121 60 226 60 235 0 8 -58 83 -129 165 l-130 150 -323 37 c-178 20 -354 39
-393 43 -116 10 -330 36 -334 41 -3 2 21 96 53 207 32 112 58 211 59 219 1 9
-60 86 -135 170 l-136 154 -319 32 c-175 18 -330 35 -345 38 -16 3 -28 3 -28
0z m1058 -3360 c84 -13 154 -25 157 -27 4 -4 -134 -518 -141 -527 -4 -6 -348
49 -355 56 -4 4 25 123 64 265 70 250 72 257 97 257 14 0 94 -11 178 -24z
m1141 -721 c195 -30 357 -57 359 -60 3 -2 -25 -116 -62 -252 -37 -137 -84
-308 -103 -381 -20 -72 -33 -135 -30 -138 4 -4 170 -34 369 -68 200 -33 368
-64 375 -69 9 -6 7 -22 -8 -64 -10 -31 -58 -205 -106 -387 -47 -182 -87 -332
-88 -334 -3 -4 -746 128 -756 134 -7 4 -19 -22 -25 -51 -1 -5 -7 -30 -14 -55
-7 -25 -12 -46 -12 -47 1 -2 -8 -33 -19 -70 -11 -38 -22 -79 -25 -93 -3 -14
-12 -50 -21 -80 -9 -30 -18 -59 -19 -65 -1 -5 -7 -30 -15 -55 -7 -25 -14 -54
-16 -64 -2 -11 -11 -44 -20 -75 -20 -67 -20 -66 -22 -88 -4 -46 -4 -46 -341
17 -178 34 -329 59 -336 56 -6 -2 -30 0 -53 6 -31 8 -40 15 -37 27 9 30 174
645 188 703 l15 57 -26 5 c-14 3 -80 15 -146 26 -66 12 -131 23 -145 26 -14 2
-50 7 -80 9 -30 3 -71 10 -90 15 -46 12 -37 10 -455 86 -423 77 -447 81 -418
83 24 1 27 8 68 166 29 109 85 312 115 416 l20 66 117 -19 c95 -15 144 -18
248 -13 72 4 139 6 150 5 21 -2 70 -1 95 1 8 1 18 7 22 13 4 6 -90 26 -275 58
-155 26 -289 48 -297 49 -12 1 -12 2 1 6 8 2 305 -44 659 -102 353 -59 646
-103 650 -98 7 7 172 609 192 698 13 63 16 66 40 60 13 -3 182 -30 377 -60z
m-2216 -1242 c-7 -2 -19 -2 -25 0 -7 3 -2 5 12 5 14 0 19 -2 13 -5z m-2520
-493 c102 -19 117 -25 117 -42 0 -16 -158 -568 -164 -575 -3 -3 -269 49 -275
53 -2 2 33 128 78 281 45 153 85 286 87 296 4 11 12 16 22 13 9 -3 70 -14 135
-26z m1188 -103 c35 -7 99 -40 135 -70 37 -31 183 -64 196 -45 6 9 8 6 4 -7
-28 -105 -300 -1066 -346 -1224 -33 -113 -58 -206 -56 -208 2 -2 160 -37 351
-78 190 -40 348 -75 350 -77 6 -6 -16 -82 -25 -88 -4 -3 -52 -161 -105 -351
-81 -285 -101 -346 -114 -342 -82 20 -687 151 -689 149 -3 -4 -52 -165 -58
-195 -3 -13 -9 -32 -15 -43 -5 -10 -7 -18 -4 -18 3 0 -1 -16 -9 -35 -8 -19
-13 -35 -10 -35 2 0 -2 -16 -10 -35 -8 -19 -13 -35 -10 -35 2 0 -2 -16 -10
-35 -8 -19 -13 -35 -10 -35 2 0 -2 -16 -10 -35 -8 -19 -13 -35 -10 -35 2 0 -2
-16 -10 -35 -8 -19 -13 -35 -10 -35 2 0 -2 -16 -10 -35 -8 -19 -13 -35 -11
-35 3 0 0 -12 -6 -27 -6 -16 -12 -36 -15 -47 -2 -10 -6 -21 -8 -24 -3 -3 -144
27 -313 66 -170 39 -325 74 -345 78 -21 3 -38 11 -38 18 1 6 50 180 109 386
95 328 107 376 92 382 -15 6 -519 117 -621 136 -30 5 -45 13 -44 23 2 22 216
743 224 751 3 5 156 -24 340 -62 184 -39 338 -70 342 -70 4 0 11 12 14 28 21
85 196 693 209 722 8 19 38 112 65 205 28 94 56 184 62 200 17 43 87 142 119
169 14 12 30 32 33 44 6 17 15 22 39 21 40 0 97 11 97 20 0 7 100 5 141 -2z
m1573 -418 c89 -17 163 -32 165 -35 4 -3 -159 -604 -166 -614 -5 -6 -346 61
-356 70 -7 6 145 577 160 603 7 11 26 9 197 -24z"/>
<path d="M4761 6018 c-22 -70 -201 -690 -201 -697 0 -5 24 -11 53 -15 28 -4
180 -29 336 -57 156 -27 287 -46 291 -42 11 11 202 683 204 713 1 24 1 24
-319 77 -176 29 -328 52 -337 53 -10 0 -21 -13 -27 -32z"/>
</g>
</svg>
