<svg width="826" height="314" viewBox="0 0 826 314" fill="none" xmlns="http://www.w3.org/2000/svg">
<g filter="url(#filter0_f_9_14)">
<rect x="29" y="29" width="768" height="256" rx="31" fill="#16181C"/>
<rect x="20.5" y="20.5" width="785" height="273" rx="39.5" stroke="#1084FD" stroke-width="17"/>
</g>
<rect x="20.5" y="20.5" width="785" height="273" rx="39.5" fill="#16181C" stroke="url(#paint0_linear_9_14)" stroke-width="17"/>
<g filter="url(#filter1_f_9_14)">
<rect x="37.5" y="37.5" width="751" height="239" rx="22.5" stroke="url(#paint1_linear_9_14)" stroke-opacity="0.21" stroke-width="17"/>
</g>
<path d="M281.328 223V154.281H294.5V179.031C298.562 174.406 303.375 172.094 308.938 172.094C315 172.094 320.016 174.297 323.984 178.703C327.953 183.078 329.938 189.375 329.938 197.594C329.938 206.094 327.906 212.641 323.844 217.234C319.812 221.828 314.906 224.125 309.125 224.125C306.281 224.125 303.469 223.422 300.688 222.016C297.938 220.578 295.562 218.469 293.562 215.688V223H281.328ZM294.406 197.031C294.406 202.188 295.219 206 296.844 208.469C299.125 211.969 302.156 213.719 305.938 213.719C308.844 213.719 311.312 212.484 313.344 210.016C315.406 207.516 316.438 203.594 316.438 198.25C316.438 192.562 315.406 188.469 313.344 185.969C311.281 183.438 308.641 182.172 305.422 182.172C302.266 182.172 299.641 183.406 297.547 185.875C295.453 188.312 294.406 192.031 294.406 197.031ZM340.578 223V154.281H353.75V223H340.578ZM400.062 223V215.547C398.25 218.203 395.859 220.297 392.891 221.828C389.953 223.359 386.844 224.125 383.562 224.125C380.219 224.125 377.219 223.391 374.562 221.922C371.906 220.453 369.984 218.391 368.797 215.734C367.609 213.078 367.016 209.406 367.016 204.719V173.219H380.188V196.094C380.188 203.094 380.422 207.391 380.891 208.984C381.391 210.547 382.281 211.797 383.562 212.734C384.844 213.641 386.469 214.094 388.438 214.094C390.688 214.094 392.703 213.484 394.484 212.266C396.266 211.016 397.484 209.484 398.141 207.672C398.797 205.828 399.125 201.344 399.125 194.219V173.219H412.297V223H400.062ZM454.812 207.156L467.938 209.359C466.25 214.172 463.578 217.844 459.922 220.375C456.297 222.875 451.75 224.125 446.281 224.125C437.625 224.125 431.219 221.297 427.062 215.641C423.781 211.109 422.141 205.391 422.141 198.484C422.141 190.234 424.297 183.781 428.609 179.125C432.922 174.438 438.375 172.094 444.969 172.094C452.375 172.094 458.219 174.547 462.5 179.453C466.781 184.328 468.828 191.812 468.641 201.906H435.641C435.734 205.812 436.797 208.859 438.828 211.047C440.859 213.203 443.391 214.281 446.422 214.281C448.484 214.281 450.219 213.719 451.625 212.594C453.031 211.469 454.094 209.656 454.812 207.156ZM455.562 193.844C455.469 190.031 454.484 187.141 452.609 185.172C450.734 183.172 448.453 182.172 445.766 182.172C442.891 182.172 440.516 183.219 438.641 185.312C436.766 187.406 435.844 190.25 435.875 193.844H455.562ZM474.781 208.797L488 206.781C488.562 209.344 489.703 211.297 491.422 212.641C493.141 213.953 495.547 214.609 498.641 214.609C502.047 214.609 504.609 213.984 506.328 212.734C507.484 211.859 508.062 210.688 508.062 209.219C508.062 208.219 507.75 207.391 507.125 206.734C506.469 206.109 505 205.531 502.719 205C492.094 202.656 485.359 200.516 482.516 198.578C478.578 195.891 476.609 192.156 476.609 187.375C476.609 183.062 478.312 179.438 481.719 176.5C485.125 173.562 490.406 172.094 497.562 172.094C504.375 172.094 509.438 173.203 512.75 175.422C516.062 177.641 518.344 180.922 519.594 185.266L507.172 187.562C506.641 185.625 505.625 184.141 504.125 183.109C502.656 182.078 500.547 181.562 497.797 181.562C494.328 181.562 491.844 182.047 490.344 183.016C489.344 183.703 488.844 184.594 488.844 185.688C488.844 186.625 489.281 187.422 490.156 188.078C491.344 188.953 495.438 190.188 502.438 191.781C509.469 193.375 514.375 195.328 517.156 197.641C519.906 199.984 521.281 203.25 521.281 207.438C521.281 212 519.375 215.922 515.562 219.203C511.75 222.484 506.109 224.125 498.641 224.125C491.859 224.125 486.484 222.75 482.516 220C478.578 217.25 476 213.516 474.781 208.797ZM532.391 223V154.281H545.562V190.75L560.984 173.219H577.203L560.188 191.406L578.422 223H564.219L551.703 200.641L545.562 207.062V223H532.391ZM580.062 173.219H594.078L605.984 208.562L617.609 173.219H631.25L613.672 221.125L610.531 229.797C609.375 232.703 608.266 234.922 607.203 236.453C606.172 237.984 604.969 239.219 603.594 240.156C602.25 241.125 600.578 241.875 598.578 242.406C596.609 242.938 594.375 243.203 591.875 243.203C589.344 243.203 586.859 242.938 584.422 242.406L583.25 232.094C585.312 232.5 587.172 232.703 588.828 232.703C591.891 232.703 594.156 231.797 595.625 229.984C597.094 228.203 598.219 225.922 599 223.141L580.062 173.219Z" fill="white"/>
<path d="M308.969 114.156L317.938 117C316.562 122 314.271 125.719 311.062 128.156C307.875 130.573 303.823 131.781 298.906 131.781C292.823 131.781 287.823 129.708 283.906 125.562C279.99 121.396 278.031 115.708 278.031 108.5C278.031 100.875 280 94.9583 283.938 90.75C287.875 86.5208 293.052 84.4062 299.469 84.4062C305.073 84.4062 309.625 86.0625 313.125 89.375C315.208 91.3333 316.771 94.1458 317.812 97.8125L308.656 100C308.115 97.625 306.979 95.75 305.25 94.375C303.542 93 301.458 92.3125 299 92.3125C295.604 92.3125 292.844 93.5312 290.719 95.9688C288.615 98.4062 287.562 102.354 287.562 107.812C287.562 113.604 288.604 117.729 290.688 120.188C292.771 122.646 295.479 123.875 298.812 123.875C301.271 123.875 303.385 123.094 305.156 121.531C306.927 119.969 308.198 117.51 308.969 114.156ZM334.594 85.1875V102.031C337.427 98.7188 340.812 97.0625 344.75 97.0625C346.771 97.0625 348.594 97.4375 350.219 98.1875C351.844 98.9375 353.062 99.8958 353.875 101.062C354.708 102.229 355.271 103.521 355.562 104.938C355.875 106.354 356.031 108.552 356.031 111.531V131H347.25V113.469C347.25 109.99 347.083 107.781 346.75 106.844C346.417 105.906 345.823 105.167 344.969 104.625C344.135 104.062 343.083 103.781 341.812 103.781C340.354 103.781 339.052 104.135 337.906 104.844C336.76 105.552 335.917 106.625 335.375 108.062C334.854 109.479 334.594 111.583 334.594 114.375V131H325.812V85.1875H334.594ZM384.188 120.438L392.938 121.906C391.812 125.115 390.031 127.562 387.594 129.25C385.177 130.917 382.146 131.75 378.5 131.75C372.729 131.75 368.458 129.865 365.688 126.094C363.5 123.073 362.406 119.26 362.406 114.656C362.406 109.156 363.844 104.854 366.719 101.75C369.594 98.625 373.229 97.0625 377.625 97.0625C382.562 97.0625 386.458 98.6979 389.312 101.969C392.167 105.219 393.531 110.208 393.406 116.938H371.406C371.469 119.542 372.177 121.573 373.531 123.031C374.885 124.469 376.573 125.188 378.594 125.188C379.969 125.188 381.125 124.812 382.062 124.062C383 123.312 383.708 122.104 384.188 120.438ZM384.688 111.562C384.625 109.021 383.969 107.094 382.719 105.781C381.469 104.448 379.948 103.781 378.156 103.781C376.24 103.781 374.656 104.479 373.406 105.875C372.156 107.271 371.542 109.167 371.562 111.562H384.688ZM429.531 107.625L420.875 109.188C420.583 107.458 419.917 106.156 418.875 105.281C417.854 104.406 416.521 103.969 414.875 103.969C412.688 103.969 410.938 104.729 409.625 106.25C408.333 107.75 407.688 110.271 407.688 113.812C407.688 117.75 408.344 120.531 409.656 122.156C410.99 123.781 412.771 124.594 415 124.594C416.667 124.594 418.031 124.125 419.094 123.188C420.156 122.229 420.906 120.594 421.344 118.281L429.969 119.75C429.073 123.708 427.354 126.698 424.812 128.719C422.271 130.74 418.865 131.75 414.594 131.75C409.74 131.75 405.865 130.219 402.969 127.156C400.094 124.094 398.656 119.854 398.656 114.438C398.656 108.958 400.104 104.698 403 101.656C405.896 98.5938 409.812 97.0625 414.75 97.0625C418.792 97.0625 422 97.9375 424.375 99.6875C426.771 101.417 428.49 104.062 429.531 107.625ZM435.906 131V85.1875H444.688V109.5L454.969 97.8125H465.781L454.438 109.938L466.594 131H457.125L448.781 116.094L444.688 120.375V131H435.906ZM487.625 113.938C487.625 111.021 488.344 108.198 489.781 105.469C491.219 102.74 493.25 100.656 495.875 99.2188C498.521 97.7812 501.469 97.0625 504.719 97.0625C509.74 97.0625 513.854 98.6979 517.062 101.969C520.271 105.219 521.875 109.333 521.875 114.312C521.875 119.333 520.25 123.5 517 126.812C513.771 130.104 509.698 131.75 504.781 131.75C501.74 131.75 498.833 131.062 496.062 129.688C493.312 128.312 491.219 126.302 489.781 123.656C488.344 120.99 487.625 117.75 487.625 113.938ZM496.625 114.406C496.625 117.698 497.406 120.219 498.969 121.969C500.531 123.719 502.458 124.594 504.75 124.594C507.042 124.594 508.958 123.719 510.5 121.969C512.062 120.219 512.844 117.677 512.844 114.344C512.844 111.094 512.062 108.594 510.5 106.844C508.958 105.094 507.042 104.219 504.75 104.219C502.458 104.219 500.531 105.094 498.969 106.844C497.406 108.594 496.625 111.115 496.625 114.406ZM550.625 131V126.031C549.417 127.802 547.823 129.198 545.844 130.219C543.885 131.24 541.812 131.75 539.625 131.75C537.396 131.75 535.396 131.26 533.625 130.281C531.854 129.302 530.573 127.927 529.781 126.156C528.99 124.385 528.594 121.938 528.594 118.812V97.8125H537.375V113.062C537.375 117.729 537.531 120.594 537.844 121.656C538.177 122.698 538.771 123.531 539.625 124.156C540.479 124.76 541.562 125.062 542.875 125.062C544.375 125.062 545.719 124.656 546.906 123.844C548.094 123.01 548.906 121.99 549.344 120.781C549.781 119.552 550 116.562 550 111.812V97.8125H558.781V131H550.625ZM583.125 97.8125V104.812H577.125V118.188C577.125 120.896 577.177 122.479 577.281 122.938C577.406 123.375 577.667 123.74 578.062 124.031C578.479 124.323 578.979 124.469 579.562 124.469C580.375 124.469 581.552 124.188 583.094 123.625L583.844 130.438C581.802 131.312 579.49 131.75 576.906 131.75C575.323 131.75 573.896 131.49 572.625 130.969C571.354 130.427 570.417 129.74 569.812 128.906C569.229 128.052 568.823 126.906 568.594 125.469C568.406 124.448 568.312 122.385 568.312 119.281V104.812H564.281V97.8125H568.312V91.2188L577.125 86.0938V97.8125H583.125ZM606.375 97.8125H614.469V102.344C617.365 98.8229 620.812 97.0625 624.812 97.0625C626.938 97.0625 628.781 97.5 630.344 98.375C631.906 99.25 633.188 100.573 634.188 102.344C635.646 100.573 637.219 99.25 638.906 98.375C640.594 97.5 642.396 97.0625 644.312 97.0625C646.75 97.0625 648.812 97.5625 650.5 98.5625C652.188 99.5417 653.448 100.99 654.281 102.906C654.885 104.323 655.188 106.615 655.188 109.781V131H646.406V112.031C646.406 108.74 646.104 106.615 645.5 105.656C644.688 104.406 643.438 103.781 641.75 103.781C640.521 103.781 639.365 104.156 638.281 104.906C637.198 105.656 636.417 106.76 635.938 108.219C635.458 109.656 635.219 111.938 635.219 115.062V131H626.438V112.812C626.438 109.583 626.281 107.5 625.969 106.562C625.656 105.625 625.167 104.927 624.5 104.469C623.854 104.01 622.969 103.781 621.844 103.781C620.49 103.781 619.271 104.146 618.188 104.875C617.104 105.604 616.323 106.656 615.844 108.031C615.385 109.406 615.156 111.688 615.156 114.875V131H606.375V97.8125ZM659.812 97.8125H669.156L677.094 121.375L684.844 97.8125H693.938L682.219 129.75L680.125 135.531C679.354 137.469 678.615 138.948 677.906 139.969C677.219 140.99 676.417 141.812 675.5 142.438C674.604 143.083 673.49 143.583 672.156 143.938C670.844 144.292 669.354 144.469 667.688 144.469C666 144.469 664.344 144.292 662.719 143.938L661.938 137.062C663.312 137.333 664.552 137.469 665.656 137.469C667.698 137.469 669.208 136.865 670.188 135.656C671.167 134.469 671.917 132.948 672.438 131.094L659.812 97.8125Z" fill="url(#paint2_linear_9_14)"/>
<path d="M108.871 96.9629C126.935 110.526 146.366 138.027 153.5 152.786C160.634 138.028 180.064 110.526 198.129 96.9629C211.164 87.176 232.283 79.6035 232.283 103.7C232.283 108.512 229.525 144.126 227.906 149.907C222.282 170.009 201.787 175.136 183.557 172.033C215.423 177.457 223.53 195.424 206.023 213.39C172.774 247.513 158.234 204.829 154.507 193.892C153.824 191.887 153.504 190.949 153.5 191.746C153.495 190.949 153.175 191.887 152.492 193.892C148.767 204.829 134.227 247.514 100.976 213.39C83.4688 195.424 91.5751 177.456 123.442 172.033C105.211 175.136 84.7161 170.009 79.0926 149.907C77.4745 144.125 74.7157 108.511 74.7157 103.7C74.7157 79.6035 95.8357 87.176 108.87 96.9629H108.871Z" fill="url(#paint3_linear_9_14)"/>
<defs>
<filter id="filter0_f_9_14" x="0.8" y="0.8" width="824.4" height="312.4" filterUnits="userSpaceOnUse" color-interpolation-filters="sRGB">
<feFlood flood-opacity="0" result="BackgroundImageFix"/>
<feBlend mode="normal" in="SourceGraphic" in2="BackgroundImageFix" result="shape"/>
<feGaussianBlur stdDeviation="5.6" result="effect1_foregroundBlur_9_14"/>
</filter>
<filter id="filter1_f_9_14" x="9.6" y="9.6" width="806.8" height="294.8" filterUnits="userSpaceOnUse" color-interpolation-filters="sRGB">
<feFlood flood-opacity="0" result="BackgroundImageFix"/>
<feBlend mode="normal" in="SourceGraphic" in2="BackgroundImageFix" result="shape"/>
<feGaussianBlur stdDeviation="9.7" result="effect1_foregroundBlur_9_14"/>
</filter>
<linearGradient id="paint0_linear_9_14" x1="413" y1="29" x2="413" y2="220" gradientUnits="userSpaceOnUse">
<stop stop-color="#FFFEBE"/>
<stop offset="1" stop-color="#1185FE"/>
</linearGradient>
<linearGradient id="paint1_linear_9_14" x1="413" y1="29" x2="413" y2="285" gradientUnits="userSpaceOnUse">
<stop stop-color="#FFFEBE"/>
<stop offset="1" stop-color="#1185FE"/>
</linearGradient>
<linearGradient id="paint2_linear_9_14" x1="275" y1="108.5" x2="790" y2="108.5" gradientUnits="userSpaceOnUse">
<stop stop-color="#FEFDBD"/>
<stop offset="0.701759" stop-color="#1185FE"/>
</linearGradient>
<linearGradient id="paint3_linear_9_14" x1="153.5" y1="87.6232" x2="153.5" y2="226.374" gradientUnits="userSpaceOnUse">
<stop offset="0.0742574" stop-color="#FFFEBE"/>
<stop offset="0.734641" stop-color="#1185FE"/>
</linearGradient>
</defs>
</svg>
