<svg width="826" height="314" viewBox="0 0 826 314" fill="none" xmlns="http://www.w3.org/2000/svg">
<g filter="url(#filter0_f_8_14)">
<rect x="29" y="29" width="768" height="256" rx="31" fill="#16181C"/>
<rect x="20.5" y="20.5" width="785" height="273" rx="39.5" stroke="#5865F2" stroke-width="17"/>
</g>
<rect x="20.5" y="20.5" width="785" height="273" rx="39.5" fill="#16181C" stroke="url(#paint0_linear_8_14)" stroke-width="17"/>
<g filter="url(#filter1_f_8_14)">
<rect x="37.5" y="37.5" width="751" height="239" rx="22.5" stroke="url(#paint1_linear_8_14)" stroke-opacity="0.21" stroke-width="17"/>
</g>
<path d="M327.547 223H315.312V215.688C313.281 218.531 310.875 220.656 308.094 222.062C305.344 223.438 302.562 224.125 299.75 224.125C294.031 224.125 289.125 221.828 285.031 217.234C280.969 212.609 278.938 206.172 278.938 197.922C278.938 189.484 280.922 183.078 284.891 178.703C288.859 174.297 293.875 172.094 299.938 172.094C305.5 172.094 310.312 174.406 314.375 179.031V154.281H327.547V223ZM292.391 197.031C292.391 202.344 293.125 206.188 294.594 208.562C296.719 212 299.688 213.719 303.5 213.719C306.531 213.719 309.109 212.438 311.234 209.875C313.359 207.281 314.422 203.422 314.422 198.297C314.422 192.578 313.391 188.469 311.328 185.969C309.266 183.438 306.625 182.172 303.406 182.172C300.281 182.172 297.656 183.422 295.531 185.922C293.438 188.391 292.391 192.094 292.391 197.031ZM340.578 166.469V154.281H353.75V166.469H340.578ZM340.578 223V173.219H353.75V223H340.578ZM362.656 208.797L375.875 206.781C376.438 209.344 377.578 211.297 379.297 212.641C381.016 213.953 383.422 214.609 386.516 214.609C389.922 214.609 392.484 213.984 394.203 212.734C395.359 211.859 395.938 210.688 395.938 209.219C395.938 208.219 395.625 207.391 395 206.734C394.344 206.109 392.875 205.531 390.594 205C379.969 202.656 373.234 200.516 370.391 198.578C366.453 195.891 364.484 192.156 364.484 187.375C364.484 183.062 366.188 179.438 369.594 176.5C373 173.562 378.281 172.094 385.438 172.094C392.25 172.094 397.312 173.203 400.625 175.422C403.938 177.641 406.219 180.922 407.469 185.266L395.047 187.562C394.516 185.625 393.5 184.141 392 183.109C390.531 182.078 388.422 181.562 385.672 181.562C382.203 181.562 379.719 182.047 378.219 183.016C377.219 183.703 376.719 184.594 376.719 185.688C376.719 186.625 377.156 187.422 378.031 188.078C379.219 188.953 383.312 190.188 390.312 191.781C397.344 193.375 402.25 195.328 405.031 197.641C407.781 199.984 409.156 203.25 409.156 207.438C409.156 212 407.25 215.922 403.438 219.203C399.625 222.484 393.984 224.125 386.516 224.125C379.734 224.125 374.359 222.75 370.391 220C366.453 217.25 363.875 213.516 362.656 208.797ZM464.141 187.938L451.156 190.281C450.719 187.688 449.719 185.734 448.156 184.422C446.625 183.109 444.625 182.453 442.156 182.453C438.875 182.453 436.25 183.594 434.281 185.875C432.344 188.125 431.375 191.906 431.375 197.219C431.375 203.125 432.359 207.297 434.328 209.734C436.328 212.172 439 213.391 442.344 213.391C444.844 213.391 446.891 212.688 448.484 211.281C450.078 209.844 451.203 207.391 451.859 203.922L464.797 206.125C463.453 212.062 460.875 216.547 457.062 219.578C453.25 222.609 448.141 224.125 441.734 224.125C434.453 224.125 428.641 221.828 424.297 217.234C419.984 212.641 417.828 206.281 417.828 198.156C417.828 189.938 420 183.547 424.344 178.984C428.688 174.391 434.562 172.094 441.969 172.094C448.031 172.094 452.844 173.406 456.406 176.031C460 178.625 462.578 182.594 464.141 187.938ZM471.125 197.406C471.125 193.031 472.203 188.797 474.359 184.703C476.516 180.609 479.562 177.484 483.5 175.328C487.469 173.172 491.891 172.094 496.766 172.094C504.297 172.094 510.469 174.547 515.281 179.453C520.094 184.328 522.5 190.5 522.5 197.969C522.5 205.5 520.062 211.75 515.188 216.719C510.344 221.656 504.234 224.125 496.859 224.125C492.297 224.125 487.938 223.094 483.781 221.031C479.656 218.969 476.516 215.953 474.359 211.984C472.203 207.984 471.125 203.125 471.125 197.406ZM484.625 198.109C484.625 203.047 485.797 206.828 488.141 209.453C490.484 212.078 493.375 213.391 496.812 213.391C500.25 213.391 503.125 212.078 505.438 209.453C507.781 206.828 508.953 203.016 508.953 198.016C508.953 193.141 507.781 189.391 505.438 186.766C503.125 184.141 500.25 182.828 496.812 182.828C493.375 182.828 490.484 184.141 488.141 186.766C485.797 189.391 484.625 193.172 484.625 198.109ZM545.469 223H532.297V173.219H544.531V180.297C546.625 176.953 548.5 174.75 550.156 173.688C551.844 172.625 553.75 172.094 555.875 172.094C558.875 172.094 561.766 172.922 564.547 174.578L560.469 186.062C558.25 184.625 556.188 183.906 554.281 183.906C552.438 183.906 550.875 184.422 549.594 185.453C548.312 186.453 547.297 188.281 546.547 190.938C545.828 193.594 545.469 199.156 545.469 207.625V223ZM615.922 223H603.688V215.688C601.656 218.531 599.25 220.656 596.469 222.062C593.719 223.438 590.938 224.125 588.125 224.125C582.406 224.125 577.5 221.828 573.406 217.234C569.344 212.609 567.312 206.172 567.312 197.922C567.312 189.484 569.297 183.078 573.266 178.703C577.234 174.297 582.25 172.094 588.312 172.094C593.875 172.094 598.688 174.406 602.75 179.031V154.281H615.922V223ZM580.766 197.031C580.766 202.344 581.5 206.188 582.969 208.562C585.094 212 588.062 213.719 591.875 213.719C594.906 213.719 597.484 212.438 599.609 209.875C601.734 207.281 602.797 203.422 602.797 198.297C602.797 192.578 601.766 188.469 599.703 185.969C597.641 183.438 595 182.172 591.781 182.172C588.656 182.172 586.031 183.422 583.906 185.922C581.812 188.391 580.766 192.094 580.766 197.031Z" fill="white"/>
<path d="M279.688 131V85.1875H299.156C304.052 85.1875 307.604 85.6042 309.812 86.4375C312.042 87.25 313.823 88.7083 315.156 90.8125C316.49 92.9167 317.156 95.3229 317.156 98.0312C317.156 101.469 316.146 104.312 314.125 106.562C312.104 108.792 309.083 110.198 305.062 110.781C307.062 111.948 308.708 113.229 310 114.625C311.312 116.021 313.073 118.5 315.281 122.062L320.875 131H309.812L303.125 121.031C300.75 117.469 299.125 115.229 298.25 114.312C297.375 113.375 296.448 112.74 295.469 112.406C294.49 112.052 292.938 111.875 290.812 111.875H288.938V131H279.688ZM288.938 104.562H295.781C300.219 104.562 302.99 104.375 304.094 104C305.198 103.625 306.062 102.979 306.688 102.062C307.312 101.146 307.625 100 307.625 98.625C307.625 97.0833 307.208 95.8438 306.375 94.9062C305.562 93.9479 304.406 93.3438 302.906 93.0938C302.156 92.9896 299.906 92.9375 296.156 92.9375H288.938V104.562ZM345.062 120.438L353.812 121.906C352.688 125.115 350.906 127.562 348.469 129.25C346.052 130.917 343.021 131.75 339.375 131.75C333.604 131.75 329.333 129.865 326.562 126.094C324.375 123.073 323.281 119.26 323.281 114.656C323.281 109.156 324.719 104.854 327.594 101.75C330.469 98.625 334.104 97.0625 338.5 97.0625C343.438 97.0625 347.333 98.6979 350.188 101.969C353.042 105.219 354.406 110.208 354.281 116.938H332.281C332.344 119.542 333.052 121.573 334.406 123.031C335.76 124.469 337.448 125.188 339.469 125.188C340.844 125.188 342 124.812 342.938 124.062C343.875 123.312 344.583 122.104 345.062 120.438ZM345.562 111.562C345.5 109.021 344.844 107.094 343.594 105.781C342.344 104.448 340.823 103.781 339.031 103.781C337.115 103.781 335.531 104.479 334.281 105.875C333.031 107.271 332.417 109.167 332.438 111.562H345.562ZM361.219 97.8125H369.406V102.688C370.469 101.021 371.906 99.6667 373.719 98.625C375.531 97.5833 377.542 97.0625 379.75 97.0625C383.604 97.0625 386.875 98.5729 389.562 101.594C392.25 104.615 393.594 108.823 393.594 114.219C393.594 119.76 392.24 124.073 389.531 127.156C386.823 130.219 383.542 131.75 379.688 131.75C377.854 131.75 376.188 131.385 374.688 130.656C373.208 129.927 371.646 128.677 370 126.906V143.625H361.219V97.8125ZM369.906 113.844C369.906 117.573 370.646 120.333 372.125 122.125C373.604 123.896 375.406 124.781 377.531 124.781C379.573 124.781 381.271 123.969 382.625 122.344C383.979 120.698 384.656 118.01 384.656 114.281C384.656 110.802 383.958 108.219 382.562 106.531C381.167 104.844 379.438 104 377.375 104C375.229 104 373.448 104.833 372.031 106.5C370.615 108.146 369.906 110.594 369.906 113.844ZM398.562 113.938C398.562 111.021 399.281 108.198 400.719 105.469C402.156 102.74 404.188 100.656 406.812 99.2188C409.458 97.7812 412.406 97.0625 415.656 97.0625C420.677 97.0625 424.792 98.6979 428 101.969C431.208 105.219 432.812 109.333 432.812 114.312C432.812 119.333 431.188 123.5 427.938 126.812C424.708 130.104 420.635 131.75 415.719 131.75C412.677 131.75 409.771 131.062 407 129.688C404.25 128.312 402.156 126.302 400.719 123.656C399.281 120.99 398.562 117.75 398.562 113.938ZM407.562 114.406C407.562 117.698 408.344 120.219 409.906 121.969C411.469 123.719 413.396 124.594 415.688 124.594C417.979 124.594 419.896 123.719 421.438 121.969C423 120.219 423.781 117.677 423.781 114.344C423.781 111.094 423 108.594 421.438 106.844C419.896 105.094 417.979 104.219 415.688 104.219C413.396 104.219 411.469 105.094 409.906 106.844C408.344 108.594 407.562 111.115 407.562 114.406ZM448.125 131H439.344V97.8125H447.5V102.531C448.896 100.302 450.146 98.8333 451.25 98.125C452.375 97.4167 453.646 97.0625 455.062 97.0625C457.062 97.0625 458.99 97.6146 460.844 98.7188L458.125 106.375C456.646 105.417 455.271 104.938 454 104.938C452.771 104.938 451.729 105.281 450.875 105.969C450.021 106.635 449.344 107.854 448.844 109.625C448.365 111.396 448.125 115.104 448.125 120.75V131ZM479.875 97.8125V104.812H473.875V118.188C473.875 120.896 473.927 122.479 474.031 122.938C474.156 123.375 474.417 123.74 474.812 124.031C475.229 124.323 475.729 124.469 476.312 124.469C477.125 124.469 478.302 124.188 479.844 123.625L480.594 130.438C478.552 131.312 476.24 131.75 473.656 131.75C472.073 131.75 470.646 131.49 469.375 130.969C468.104 130.427 467.167 129.74 466.562 128.906C465.979 128.052 465.573 126.906 465.344 125.469C465.156 124.448 465.062 122.385 465.062 119.281V104.812H461.031V97.8125H465.062V91.2188L473.875 86.0938V97.8125H479.875ZM503.406 131V85.1875H512.188V101.688C514.896 98.6042 518.104 97.0625 521.812 97.0625C525.854 97.0625 529.198 98.5312 531.844 101.469C534.49 104.385 535.812 108.583 535.812 114.062C535.812 119.729 534.458 124.094 531.75 127.156C529.062 130.219 525.792 131.75 521.938 131.75C520.042 131.75 518.167 131.281 516.312 130.344C514.479 129.385 512.896 127.979 511.562 126.125V131H503.406ZM512.125 113.688C512.125 117.125 512.667 119.667 513.75 121.312C515.271 123.646 517.292 124.812 519.812 124.812C521.75 124.812 523.396 123.99 524.75 122.344C526.125 120.677 526.812 118.062 526.812 114.5C526.812 110.708 526.125 107.979 524.75 106.312C523.375 104.625 521.615 103.781 519.469 103.781C517.365 103.781 515.615 104.604 514.219 106.25C512.823 107.875 512.125 110.354 512.125 113.688ZM564.75 131V126.031C563.542 127.802 561.948 129.198 559.969 130.219C558.01 131.24 555.938 131.75 553.75 131.75C551.521 131.75 549.521 131.26 547.75 130.281C545.979 129.302 544.698 127.927 543.906 126.156C543.115 124.385 542.719 121.938 542.719 118.812V97.8125H551.5V113.062C551.5 117.729 551.656 120.594 551.969 121.656C552.302 122.698 552.896 123.531 553.75 124.156C554.604 124.76 555.688 125.062 557 125.062C558.5 125.062 559.844 124.656 561.031 123.844C562.219 123.01 563.031 121.99 563.469 120.781C563.906 119.552 564.125 116.562 564.125 111.812V97.8125H572.906V131H564.75ZM581.219 133.188L591.25 134.406C591.417 135.573 591.802 136.375 592.406 136.812C593.24 137.438 594.552 137.75 596.344 137.75C598.635 137.75 600.354 137.406 601.5 136.719C602.271 136.26 602.854 135.521 603.25 134.5C603.521 133.771 603.656 132.427 603.656 130.469V125.625C601.031 129.208 597.719 131 593.719 131C589.26 131 585.729 129.115 583.125 125.344C581.083 122.365 580.062 118.656 580.062 114.219C580.062 108.656 581.396 104.406 584.062 101.469C586.75 98.5312 590.083 97.0625 594.062 97.0625C598.167 97.0625 601.552 98.8646 604.219 102.469V97.8125H612.438V127.594C612.438 131.51 612.115 134.438 611.469 136.375C610.823 138.312 609.917 139.833 608.75 140.938C607.583 142.042 606.021 142.906 604.062 143.531C602.125 144.156 599.667 144.469 596.688 144.469C591.062 144.469 587.073 143.5 584.719 141.562C582.365 139.646 581.188 137.208 581.188 134.25C581.188 133.958 581.198 133.604 581.219 133.188ZM589.062 113.719C589.062 117.24 589.74 119.823 591.094 121.469C592.469 123.094 594.156 123.906 596.156 123.906C598.302 123.906 600.115 123.073 601.594 121.406C603.073 119.719 603.812 117.229 603.812 113.938C603.812 110.5 603.104 107.948 601.688 106.281C600.271 104.615 598.479 103.781 596.312 103.781C594.208 103.781 592.469 104.604 591.094 106.25C589.74 107.875 589.062 110.365 589.062 113.719ZM618.062 121.531L626.875 120.188C627.25 121.896 628.01 123.198 629.156 124.094C630.302 124.969 631.906 125.406 633.969 125.406C636.24 125.406 637.948 124.99 639.094 124.156C639.865 123.573 640.25 122.792 640.25 121.812C640.25 121.146 640.042 120.594 639.625 120.156C639.188 119.74 638.208 119.354 636.688 119C629.604 117.438 625.115 116.01 623.219 114.719C620.594 112.927 619.281 110.438 619.281 107.25C619.281 104.375 620.417 101.958 622.688 100C624.958 98.0417 628.479 97.0625 633.25 97.0625C637.792 97.0625 641.167 97.8021 643.375 99.2812C645.583 100.76 647.104 102.948 647.938 105.844L639.656 107.375C639.302 106.083 638.625 105.094 637.625 104.406C636.646 103.719 635.24 103.375 633.406 103.375C631.094 103.375 629.438 103.698 628.438 104.344C627.771 104.802 627.438 105.396 627.438 106.125C627.438 106.75 627.729 107.281 628.312 107.719C629.104 108.302 631.833 109.125 636.5 110.188C641.188 111.25 644.458 112.552 646.312 114.094C648.146 115.656 649.062 117.833 649.062 120.625C649.062 123.667 647.792 126.281 645.25 128.469C642.708 130.656 638.948 131.75 633.969 131.75C629.448 131.75 625.865 130.833 623.219 129C620.594 127.167 618.875 124.677 618.062 121.531ZM672.562 113.938C672.562 111.021 673.281 108.198 674.719 105.469C676.156 102.74 678.188 100.656 680.812 99.2188C683.458 97.7812 686.406 97.0625 689.656 97.0625C694.677 97.0625 698.792 98.6979 702 101.969C705.208 105.219 706.812 109.333 706.812 114.312C706.812 119.333 705.188 123.5 701.938 126.812C698.708 130.104 694.635 131.75 689.719 131.75C686.677 131.75 683.771 131.062 681 129.688C678.25 128.312 676.156 126.302 674.719 123.656C673.281 120.99 672.562 117.75 672.562 113.938ZM681.562 114.406C681.562 117.698 682.344 120.219 683.906 121.969C685.469 123.719 687.396 124.594 689.688 124.594C691.979 124.594 693.896 123.719 695.438 121.969C697 120.219 697.781 117.677 697.781 114.344C697.781 111.094 697 108.594 695.438 106.844C693.896 105.094 691.979 104.219 689.688 104.219C687.396 104.219 685.469 105.094 683.906 106.844C682.344 108.594 681.562 111.115 681.562 114.406ZM743.906 131H735.125V114.062C735.125 110.479 734.938 108.167 734.562 107.125C734.188 106.062 733.573 105.24 732.719 104.656C731.885 104.073 730.875 103.781 729.688 103.781C728.167 103.781 726.802 104.198 725.594 105.031C724.385 105.865 723.552 106.969 723.094 108.344C722.656 109.719 722.438 112.26 722.438 115.969V131H713.656V97.8125H721.812V102.688C724.708 98.9375 728.354 97.0625 732.75 97.0625C734.688 97.0625 736.458 97.4167 738.062 98.125C739.667 98.8125 740.875 99.6979 741.688 100.781C742.521 101.865 743.094 103.094 743.406 104.469C743.74 105.844 743.906 107.812 743.906 110.375V131Z" fill="url(#paint2_linear_8_14)"/>
<path d="M189.626 180.31C181.151 180.31 174.164 172.716 174.164 163.385C174.164 154.054 181.01 146.46 189.626 146.46C198.242 146.46 205.219 154.127 205.087 163.385C204.956 172.643 198.308 180.31 189.626 180.31ZM132.468 180.31C123.993 180.31 117.006 172.716 117.006 163.385C117.006 154.054 123.852 146.46 132.468 146.46C141.084 146.46 148.062 154.127 147.93 163.385C147.798 172.643 141.084 180.31 132.478 180.31H132.468ZM220.596 103.609C209.445 98.6123 197.677 95.0493 185.586 93.0092C185.476 92.9879 185.362 93.0013 185.26 93.0476C185.159 93.0939 185.075 93.1706 185.021 93.2666C183.418 96.1075 181.963 99.0255 180.661 102.01C167.628 100.077 154.371 100.077 141.338 102.01C140.029 99.018 138.552 96.0993 136.913 93.2666C136.856 93.1735 136.771 93.0991 136.671 93.0532C136.57 93.0073 136.457 92.992 136.348 93.0092C124.256 95.045 112.487 98.6083 101.338 103.609C101.244 103.649 101.165 103.717 101.112 103.802C78.8135 136.329 72.7023 168.055 75.6873 199.414C75.6958 199.491 75.7203 199.566 75.7591 199.634C75.7979 199.702 75.8504 199.761 75.9133 199.809C88.8962 209.2 103.419 216.368 118.861 221.009C118.97 221.041 119.086 221.039 119.194 221.005C119.302 220.97 119.396 220.905 119.464 220.816C122.78 216.408 125.719 211.74 128.25 206.861C128.283 206.793 128.302 206.72 128.305 206.646C128.308 206.571 128.295 206.497 128.267 206.427C128.238 206.358 128.195 206.295 128.14 206.243C128.086 206.191 128.02 206.151 127.948 206.125C123.314 204.394 118.827 202.306 114.53 199.883C114.447 199.839 114.377 199.775 114.326 199.697C114.275 199.619 114.246 199.53 114.24 199.438C114.234 199.346 114.253 199.255 114.294 199.171C114.335 199.088 114.396 199.017 114.473 198.963C115.415 198.301 116.281 197.621 117.138 196.922C117.214 196.86 117.307 196.821 117.405 196.808C117.503 196.795 117.604 196.809 117.694 196.849C145.839 209.398 176.32 209.398 204.136 196.849C204.227 196.806 204.328 196.789 204.429 196.8C204.529 196.812 204.623 196.851 204.701 196.913C205.558 197.603 206.462 198.301 207.376 198.954C207.453 199.007 207.516 199.078 207.557 199.16C207.599 199.243 207.618 199.335 207.613 199.427C207.609 199.519 207.58 199.608 207.53 199.686C207.48 199.764 207.411 199.829 207.329 199.874C203.058 202.304 198.585 204.38 193.957 206.079C193.885 206.106 193.819 206.147 193.765 206.2C193.71 206.253 193.668 206.317 193.64 206.387C193.612 206.458 193.6 206.533 193.605 206.608C193.609 206.683 193.63 206.757 193.665 206.824C196.234 211.679 199.164 216.343 202.432 220.779C202.498 220.87 202.592 220.939 202.7 220.975C202.808 221.011 202.925 221.014 203.035 220.982C218.504 216.356 233.051 209.186 246.049 199.782C246.112 199.736 246.165 199.679 246.204 199.612C246.243 199.546 246.267 199.472 246.275 199.395C249.862 163.173 240.267 131.704 220.851 103.784C220.793 103.699 220.706 103.637 220.606 103.609H220.596Z" fill="url(#paint3_linear_8_14)"/>
<defs>
<filter id="filter0_f_8_14" x="0.8" y="0.8" width="824.4" height="312.4" filterUnits="userSpaceOnUse" color-interpolation-filters="sRGB">
<feFlood flood-opacity="0" result="BackgroundImageFix"/>
<feBlend mode="normal" in="SourceGraphic" in2="BackgroundImageFix" result="shape"/>
<feGaussianBlur stdDeviation="5.6" result="effect1_foregroundBlur_8_14"/>
</filter>
<filter id="filter1_f_8_14" x="9.6" y="9.6" width="806.8" height="294.8" filterUnits="userSpaceOnUse" color-interpolation-filters="sRGB">
<feFlood flood-opacity="0" result="BackgroundImageFix"/>
<feBlend mode="normal" in="SourceGraphic" in2="BackgroundImageFix" result="shape"/>
<feGaussianBlur stdDeviation="9.7" result="effect1_foregroundBlur_8_14"/>
</filter>
<linearGradient id="paint0_linear_8_14" x1="413" y1="29" x2="413" y2="220" gradientUnits="userSpaceOnUse">
<stop stop-color="#CB569B"/>
<stop offset="1" stop-color="#5966F2"/>
</linearGradient>
<linearGradient id="paint1_linear_8_14" x1="413" y1="29" x2="413" y2="285" gradientUnits="userSpaceOnUse">
<stop stop-color="#CB569C"/>
<stop offset="1" stop-color="#5865F2"/>
</linearGradient>
<linearGradient id="paint2_linear_8_14" x1="275" y1="108.5" x2="790" y2="108.5" gradientUnits="userSpaceOnUse">
<stop stop-color="#CD569B"/>
<stop offset="0.840477" stop-color="#5764F1"/>
</linearGradient>
<linearGradient id="paint3_linear_8_14" x1="160.999" y1="92.9994" x2="160.999" y2="221.032" gradientUnits="userSpaceOnUse">
<stop stop-color="#D35697"/>
<stop offset="0.630834" stop-color="#5865F2"/>
</linearGradient>
</defs>
</svg>
