<svg width="826" height="314" viewBox="0 0 826 314" fill="none" xmlns="http://www.w3.org/2000/svg">
<g filter="url(#filter0_f_2_10)">
<rect x="29" y="29" width="768" height="256" rx="31" fill="#16181C"/>
<rect x="20.5" y="20.5" width="785" height="273" rx="39.5" stroke="#18D965" stroke-width="17"/>
</g>
<rect x="20.5" y="20.5" width="785" height="273" rx="39.5" fill="#16181C" stroke="url(#paint0_linear_2_10)" stroke-width="17"/>
<g clip-path="url(#clip0_2_10)">
<path fill-rule="evenodd" clip-rule="evenodd" d="M233.445 176.795C236.737 164.593 236.96 151.386 233.456 138.298C222.868 98.7203 182.246 75.2311 142.728 85.835C112.226 94.0213 91.2924 120.125 88.1994 149.809H100.716C103.693 125.709 120.878 104.663 145.74 97.9898C176.468 89.7426 207.999 106.385 218.994 135.579L206.813 138.846C201.208 125.265 189.915 115.307 176.54 111.066L174.302 123.775C184.862 127.68 193.427 136.483 196.56 148.198C201.127 165.269 192.623 182.76 177.193 190.016L180.526 202.478C200.807 194.086 212.991 172.951 210.109 151.163L222.244 147.908C223.544 156.23 223.093 164.504 221.128 172.304L233.445 176.795Z" fill="url(#paint1_linear_2_10)"/>
<path d="M181.075 229.165C141.555 239.769 100.936 216.28 90.3443 176.702C89.11 172.084 88.3382 167.452 88 162.851H100.508C100.823 166.304 101.433 169.777 102.361 173.238C103.332 176.864 104.607 180.328 106.15 183.61L117.305 176.899C116.366 174.725 115.574 172.458 114.944 170.101C107.994 144.128 123.384 117.429 149.319 110.469C154.233 109.15 159.176 108.637 164.003 108.843L161.766 121.554C158.742 121.569 155.672 121.966 152.614 122.786C133.472 127.926 122.112 147.629 127.24 166.802C127.558 167.982 127.928 169.133 128.35 170.252L142.615 161.669L138.317 150.238L151.787 136.362L168.813 132.683L173.742 138.768L165.894 146.74L159.049 148.899L154.158 153.94L156.554 160.628C156.554 160.628 161.407 165.799 161.416 165.802L168.273 163.973L173.152 158.599L183.807 155.216L186.981 162.376L175.988 175.893L157.566 181.743L149.304 172.519L134.903 181.183C142.286 189.613 153.386 194.295 164.894 193.318L168.226 205.78C151.053 208.059 134.279 200.93 123.858 187.833L112.755 194.512C127.385 213.787 152.704 223.335 177.497 216.683C195.343 211.894 209.233 199.695 216.754 184.279L229.08 188.773C220.151 207.986 203.11 223.251 181.075 229.165Z" fill="url(#paint2_linear_2_10)"/>
</g>
<g filter="url(#filter1_f_2_10)">
<rect x="37.5" y="37.5" width="751" height="239" rx="22.5" stroke="url(#paint3_linear_2_10)" stroke-opacity="0.21" stroke-width="17"/>
</g>
<path d="M280.906 173.219H293.047V180.016C297.391 174.734 302.562 172.094 308.562 172.094C311.75 172.094 314.516 172.75 316.859 174.062C319.203 175.375 321.125 177.359 322.625 180.016C324.812 177.359 327.172 175.375 329.703 174.062C332.234 172.75 334.938 172.094 337.812 172.094C341.469 172.094 344.562 172.844 347.094 174.344C349.625 175.812 351.516 177.984 352.766 180.859C353.672 182.984 354.125 186.422 354.125 191.172V223H340.953V194.547C340.953 189.609 340.5 186.422 339.594 184.984C338.375 183.109 336.5 182.172 333.969 182.172C332.125 182.172 330.391 182.734 328.766 183.859C327.141 184.984 325.969 186.641 325.25 188.828C324.531 190.984 324.172 194.406 324.172 199.094V223H311V195.719C311 190.875 310.766 187.75 310.297 186.344C309.828 184.938 309.094 183.891 308.094 183.203C307.125 182.516 305.797 182.172 304.109 182.172C302.078 182.172 300.25 182.719 298.625 183.812C297 184.906 295.828 186.484 295.109 188.547C294.422 190.609 294.078 194.031 294.078 198.812V223H280.906V173.219ZM364.25 197.406C364.25 193.031 365.328 188.797 367.484 184.703C369.641 180.609 372.688 177.484 376.625 175.328C380.594 173.172 385.016 172.094 389.891 172.094C397.422 172.094 403.594 174.547 408.406 179.453C413.219 184.328 415.625 190.5 415.625 197.969C415.625 205.5 413.188 211.75 408.312 216.719C403.469 221.656 397.359 224.125 389.984 224.125C385.422 224.125 381.062 223.094 376.906 221.031C372.781 218.969 369.641 215.953 367.484 211.984C365.328 207.984 364.25 203.125 364.25 197.406ZM377.75 198.109C377.75 203.047 378.922 206.828 381.266 209.453C383.609 212.078 386.5 213.391 389.938 213.391C393.375 213.391 396.25 212.078 398.562 209.453C400.906 206.828 402.078 203.016 402.078 198.016C402.078 193.141 400.906 189.391 398.562 186.766C396.25 184.141 393.375 182.828 389.938 182.828C386.5 182.828 383.609 184.141 381.266 186.766C378.922 189.391 377.75 193.172 377.75 198.109ZM471.641 223H459.406V215.688C457.375 218.531 454.969 220.656 452.188 222.062C449.438 223.438 446.656 224.125 443.844 224.125C438.125 224.125 433.219 221.828 429.125 217.234C425.062 212.609 423.031 206.172 423.031 197.922C423.031 189.484 425.016 183.078 428.984 178.703C432.953 174.297 437.969 172.094 444.031 172.094C449.594 172.094 454.406 174.406 458.469 179.031V154.281H471.641V223ZM436.484 197.031C436.484 202.344 437.219 206.188 438.688 208.562C440.812 212 443.781 213.719 447.594 213.719C450.625 213.719 453.203 212.438 455.328 209.875C457.453 207.281 458.516 203.422 458.516 198.297C458.516 192.578 457.484 188.469 455.422 185.969C453.359 183.438 450.719 182.172 447.5 182.172C444.375 182.172 441.75 183.422 439.625 185.922C437.531 188.391 436.484 192.094 436.484 197.031ZM497.281 223H484.109V173.219H496.344V180.297C498.438 176.953 500.312 174.75 501.969 173.688C503.656 172.625 505.562 172.094 507.688 172.094C510.688 172.094 513.578 172.922 516.359 174.578L512.281 186.062C510.062 184.625 508 183.906 506.094 183.906C504.25 183.906 502.688 184.422 501.406 185.453C500.125 186.453 499.109 188.281 498.359 190.938C497.641 193.594 497.281 199.156 497.281 207.625V223ZM522.078 166.469V154.281H535.25V166.469H522.078ZM522.078 223V173.219H535.25V223H522.078ZM594.078 223H580.906V197.594C580.906 192.219 580.625 188.75 580.062 187.188C579.5 185.594 578.578 184.359 577.297 183.484C576.047 182.609 574.531 182.172 572.75 182.172C570.469 182.172 568.422 182.797 566.609 184.047C564.797 185.297 563.547 186.953 562.859 189.016C562.203 191.078 561.875 194.891 561.875 200.453V223H548.703V173.219H560.938V180.531C565.281 174.906 570.75 172.094 577.344 172.094C580.25 172.094 582.906 172.625 585.312 173.688C587.719 174.719 589.531 176.047 590.75 177.672C592 179.297 592.859 181.141 593.328 183.203C593.828 185.266 594.078 188.219 594.078 192.062V223ZM630.312 173.219V183.719H621.312V203.781C621.312 207.844 621.391 210.219 621.547 210.906C621.734 211.562 622.125 212.109 622.719 212.547C623.344 212.984 624.094 213.203 624.969 213.203C626.188 213.203 627.953 212.781 630.266 211.938L631.391 222.156C628.328 223.469 624.859 224.125 620.984 224.125C618.609 224.125 616.469 223.734 614.562 222.953C612.656 222.141 611.25 221.109 610.344 219.859C609.469 218.578 608.859 216.859 608.516 214.703C608.234 213.172 608.094 210.078 608.094 205.422V183.719H602.047V173.219H608.094V163.328L621.312 155.641V173.219H630.312ZM652.578 154.281V179.547C656.828 174.578 661.906 172.094 667.812 172.094C670.844 172.094 673.578 172.656 676.016 173.781C678.453 174.906 680.281 176.344 681.5 178.094C682.75 179.844 683.594 181.781 684.031 183.906C684.5 186.031 684.734 189.328 684.734 193.797V223H671.562V196.703C671.562 191.484 671.312 188.172 670.812 186.766C670.312 185.359 669.422 184.25 668.141 183.438C666.891 182.594 665.312 182.172 663.406 182.172C661.219 182.172 659.266 182.703 657.547 183.766C655.828 184.828 654.562 186.438 653.75 188.594C652.969 190.719 652.578 193.875 652.578 198.062V223H639.406V154.281H652.578Z" fill="white"/>
<path d="M279.625 85.1875H296.531C300.344 85.1875 303.25 85.4792 305.25 86.0625C307.938 86.8542 310.24 88.2604 312.156 90.2812C314.073 92.3021 315.531 94.7812 316.531 97.7188C317.531 100.635 318.031 104.24 318.031 108.531C318.031 112.302 317.562 115.552 316.625 118.281C315.479 121.615 313.844 124.312 311.719 126.375C310.115 127.938 307.948 129.156 305.219 130.031C303.177 130.677 300.448 131 297.031 131H279.625V85.1875ZM288.875 92.9375V123.281H295.781C298.365 123.281 300.229 123.135 301.375 122.844C302.875 122.469 304.115 121.833 305.094 120.938C306.094 120.042 306.906 118.573 307.531 116.531C308.156 114.469 308.469 111.667 308.469 108.125C308.469 104.583 308.156 101.865 307.531 99.9688C306.906 98.0729 306.031 96.5938 304.906 95.5312C303.781 94.4688 302.354 93.75 300.625 93.375C299.333 93.0833 296.802 92.9375 293.031 92.9375H288.875ZM323.812 113.938C323.812 111.021 324.531 108.198 325.969 105.469C327.406 102.74 329.438 100.656 332.062 99.2188C334.708 97.7812 337.656 97.0625 340.906 97.0625C345.927 97.0625 350.042 98.6979 353.25 101.969C356.458 105.219 358.062 109.333 358.062 114.312C358.062 119.333 356.438 123.5 353.188 126.812C349.958 130.104 345.885 131.75 340.969 131.75C337.927 131.75 335.021 131.062 332.25 129.688C329.5 128.312 327.406 126.302 325.969 123.656C324.531 120.99 323.812 117.75 323.812 113.938ZM332.812 114.406C332.812 117.698 333.594 120.219 335.156 121.969C336.719 123.719 338.646 124.594 340.938 124.594C343.229 124.594 345.146 123.719 346.688 121.969C348.25 120.219 349.031 117.677 349.031 114.344C349.031 111.094 348.25 108.594 346.688 106.844C345.146 105.094 343.229 104.219 340.938 104.219C338.646 104.219 336.719 105.094 335.156 106.844C333.594 108.594 332.812 111.115 332.812 114.406ZM371.156 131L360.656 97.8125H369.188L375.406 119.562L381.125 97.8125H389.594L395.125 119.562L401.469 97.8125H410.125L399.469 131H391.031L385.312 109.656L379.688 131H371.156ZM444.969 131H436.188V114.062C436.188 110.479 436 108.167 435.625 107.125C435.25 106.062 434.635 105.24 433.781 104.656C432.948 104.073 431.938 103.781 430.75 103.781C429.229 103.781 427.865 104.198 426.656 105.031C425.448 105.865 424.615 106.969 424.156 108.344C423.719 109.719 423.5 112.26 423.5 115.969V131H414.719V97.8125H422.875V102.688C425.771 98.9375 429.417 97.0625 433.812 97.0625C435.75 97.0625 437.521 97.4167 439.125 98.125C440.729 98.8125 441.938 99.6979 442.75 100.781C443.583 101.865 444.156 103.094 444.469 104.469C444.802 105.844 444.969 107.812 444.969 110.375V131ZM453.906 131V85.1875H462.688V131H453.906ZM469.688 113.938C469.688 111.021 470.406 108.198 471.844 105.469C473.281 102.74 475.312 100.656 477.938 99.2188C480.583 97.7812 483.531 97.0625 486.781 97.0625C491.802 97.0625 495.917 98.6979 499.125 101.969C502.333 105.219 503.938 109.333 503.938 114.312C503.938 119.333 502.312 123.5 499.062 126.812C495.833 130.104 491.76 131.75 486.844 131.75C483.802 131.75 480.896 131.062 478.125 129.688C475.375 128.312 473.281 126.302 471.844 123.656C470.406 120.99 469.688 117.75 469.688 113.938ZM478.688 114.406C478.688 117.698 479.469 120.219 481.031 121.969C482.594 123.719 484.521 124.594 486.812 124.594C489.104 124.594 491.021 123.719 492.562 121.969C494.125 120.219 494.906 117.677 494.906 114.344C494.906 111.094 494.125 108.594 492.562 106.844C491.021 105.094 489.104 104.219 486.812 104.219C484.521 104.219 482.594 105.094 481.031 106.844C479.469 108.594 478.688 111.115 478.688 114.406ZM517.406 107.938L509.438 106.5C510.333 103.292 511.875 100.917 514.062 99.375C516.25 97.8333 519.5 97.0625 523.812 97.0625C527.729 97.0625 530.646 97.5312 532.562 98.4688C534.479 99.3854 535.823 100.562 536.594 102C537.385 103.417 537.781 106.031 537.781 109.844L537.688 120.094C537.688 123.01 537.823 125.167 538.094 126.562C538.385 127.938 538.917 129.417 539.688 131H531C530.771 130.417 530.49 129.552 530.156 128.406C530.01 127.885 529.906 127.542 529.844 127.375C528.344 128.833 526.74 129.927 525.031 130.656C523.323 131.385 521.5 131.75 519.562 131.75C516.146 131.75 513.448 130.823 511.469 128.969C509.51 127.115 508.531 124.771 508.531 121.938C508.531 120.062 508.979 118.396 509.875 116.938C510.771 115.458 512.021 114.333 513.625 113.562C515.25 112.771 517.583 112.083 520.625 111.5C524.729 110.729 527.573 110.01 529.156 109.344V108.469C529.156 106.781 528.74 105.583 527.906 104.875C527.073 104.146 525.5 103.781 523.188 103.781C521.625 103.781 520.406 104.094 519.531 104.719C518.656 105.323 517.948 106.396 517.406 107.938ZM529.156 115.062C528.031 115.438 526.25 115.885 523.812 116.406C521.375 116.927 519.781 117.438 519.031 117.938C517.885 118.75 517.312 119.781 517.312 121.031C517.312 122.26 517.771 123.323 518.688 124.219C519.604 125.115 520.771 125.562 522.188 125.562C523.771 125.562 525.281 125.042 526.719 124C527.781 123.208 528.479 122.24 528.812 121.094C529.042 120.344 529.156 118.917 529.156 116.812V115.062ZM576.906 131H568.75V126.125C567.396 128.021 565.792 129.438 563.938 130.375C562.104 131.292 560.25 131.75 558.375 131.75C554.562 131.75 551.292 130.219 548.562 127.156C545.854 124.073 544.5 119.781 544.5 114.281C544.5 108.656 545.823 104.385 548.469 101.469C551.115 98.5312 554.458 97.0625 558.5 97.0625C562.208 97.0625 565.417 98.6042 568.125 101.688V85.1875H576.906V131ZM553.469 113.688C553.469 117.229 553.958 119.792 554.938 121.375C556.354 123.667 558.333 124.812 560.875 124.812C562.896 124.812 564.615 123.958 566.031 122.25C567.448 120.521 568.156 117.948 568.156 114.531C568.156 110.719 567.469 107.979 566.094 106.312C564.719 104.625 562.958 103.781 560.812 103.781C558.729 103.781 556.979 104.615 555.562 106.281C554.167 107.927 553.469 110.396 553.469 113.688ZM601.375 113.938C601.375 111.021 602.094 108.198 603.531 105.469C604.969 102.74 607 100.656 609.625 99.2188C612.271 97.7812 615.219 97.0625 618.469 97.0625C623.49 97.0625 627.604 98.6979 630.812 101.969C634.021 105.219 635.625 109.333 635.625 114.312C635.625 119.333 634 123.5 630.75 126.812C627.521 130.104 623.448 131.75 618.531 131.75C615.49 131.75 612.583 131.062 609.812 129.688C607.062 128.312 604.969 126.302 603.531 123.656C602.094 120.99 601.375 117.75 601.375 113.938ZM610.375 114.406C610.375 117.698 611.156 120.219 612.719 121.969C614.281 123.719 616.208 124.594 618.5 124.594C620.792 124.594 622.708 123.719 624.25 121.969C625.812 120.219 626.594 117.677 626.594 114.344C626.594 111.094 625.812 108.594 624.25 106.844C622.708 105.094 620.792 104.219 618.5 104.219C616.208 104.219 614.281 105.094 612.719 106.844C611.156 108.594 610.375 111.115 610.375 114.406ZM672.719 131H663.938V114.062C663.938 110.479 663.75 108.167 663.375 107.125C663 106.062 662.385 105.24 661.531 104.656C660.698 104.073 659.688 103.781 658.5 103.781C656.979 103.781 655.615 104.198 654.406 105.031C653.198 105.865 652.365 106.969 651.906 108.344C651.469 109.719 651.25 112.26 651.25 115.969V131H642.469V97.8125H650.625V102.688C653.521 98.9375 657.167 97.0625 661.562 97.0625C663.5 97.0625 665.271 97.4167 666.875 98.125C668.479 98.8125 669.688 99.6979 670.5 100.781C671.333 101.865 671.906 103.094 672.219 104.469C672.552 105.844 672.719 107.812 672.719 110.375V131Z" fill="url(#paint4_linear_2_10)"/>
<defs>
<filter id="filter0_f_2_10" x="0.8" y="0.8" width="824.4" height="312.4" filterUnits="userSpaceOnUse" color-interpolation-filters="sRGB">
<feFlood flood-opacity="0" result="BackgroundImageFix"/>
<feBlend mode="normal" in="SourceGraphic" in2="BackgroundImageFix" result="shape"/>
<feGaussianBlur stdDeviation="5.6" result="effect1_foregroundBlur_2_10"/>
</filter>
<filter id="filter1_f_2_10" x="9.6" y="9.6" width="806.8" height="294.8" filterUnits="userSpaceOnUse" color-interpolation-filters="sRGB">
<feFlood flood-opacity="0" result="BackgroundImageFix"/>
<feBlend mode="normal" in="SourceGraphic" in2="BackgroundImageFix" result="shape"/>
<feGaussianBlur stdDeviation="9.7" result="effect1_foregroundBlur_2_10"/>
</filter>
<linearGradient id="paint0_linear_2_10" x1="413" y1="29" x2="413" y2="220" gradientUnits="userSpaceOnUse">
<stop stop-color="#18D9A6"/>
<stop offset="1" stop-color="#18D965"/>
</linearGradient>
<linearGradient id="paint1_linear_2_10" x1="162.1" y1="83.2892" x2="162.1" y2="202.478" gradientUnits="userSpaceOnUse">
<stop stop-color="#18D9A4"/>
<stop offset="1" stop-color="#18DA66"/>
</linearGradient>
<linearGradient id="paint2_linear_2_10" x1="158.54" y1="108.799" x2="158.54" y2="231.711" gradientUnits="userSpaceOnUse">
<stop stop-color="#18D9A4"/>
<stop offset="1" stop-color="#18DA66"/>
</linearGradient>
<linearGradient id="paint3_linear_2_10" x1="413" y1="29" x2="413" y2="285" gradientUnits="userSpaceOnUse">
<stop stop-color="#18D9A5"/>
<stop offset="1" stop-color="#18D965"/>
</linearGradient>
<linearGradient id="paint4_linear_2_10" x1="275" y1="108.5" x2="790" y2="108.5" gradientUnits="userSpaceOnUse">
<stop stop-color="#18DA65"/>
<stop offset="0.840477" stop-color="#19D9A3"/>
</linearGradient>
<clipPath id="clip0_2_10">
<rect width="148" height="149" fill="white" transform="translate(88 83)"/>
</clipPath>
</defs>
</svg>
